<svg width="150" height="150" viewBox="0 0 150 150" fill="none" xmlns="http://www.w3.org/2000/svg">
<circle cx="75" cy="75" r="75" fill="#282A32"/>
<path d="M75 35C96 35 110 40.5 110 47.5V55C112.766 55 115 57.2344 115 60V70C115 72.7656 112.766 75 110 75V100C110 102.766 107.766 105 105 105V110C105 112.766 102.766 115 100 115H95C92.2344 115 90 112.766 90 110V105H60V110C60 112.766 57.7656 115 55 115H50C47.2344 115 45 112.766 45 110V105C42.2391 105 40 102.766 40 100V75C37.2391 75 35 72.7656 35 70V60C35 57.2344 37.2391 55 40 55V47.5C40 40.5 54 35 75 35ZM50 75C50 77.7656 52.2344 80 55 80H72.5V55H55C52.2344 55 50 57.2344 50 60V75ZM77.5 80H95C97.7656 80 100 77.7656 100 75V60C100 57.2344 97.7656 55 95 55H77.5V80ZM52.5 97.5C55.2656 97.5 57.5 95.2656 57.5 92.5C57.5 89.7344 55.2656 87.5 52.5 87.5C49.7344 87.5 47.5 89.7344 47.5 92.5C47.5 95.2656 49.7344 97.5 52.5 97.5ZM97.5 97.5C100.266 97.5 102.5 95.2656 102.5 92.5C102.5 89.7344 100.266 87.5 97.5 87.5C94.7344 87.5 92.5 89.7344 92.5 92.5C92.5 95.2656 94.7344 97.5 97.5 97.5ZM87.5 45H62.5C61.125 45 60 46.1187 60 47.5C60 48.8813 61.125 50 62.5 50H87.5C88.875 50 90 48.8813 90 47.5C90 46.1187 88.875 45 87.5 45Z" fill="#C5F1FE"/>
</svg>
