<svg width="20" height="10" viewBox="0 0 20 10" fill="none" xmlns="http://www.w3.org/2000/svg">
<path d="M0.12644 1.41908C0.125793 1.08809 0.241068 0.767322 0.452253 0.512462C0.571173 0.369021 0.717226 0.250451 0.88204 0.163541C1.04686 0.0766308 1.2272 0.0230893 1.41273 0.00598283C1.59827 -0.0111236 1.78537 0.00854139 1.96329 0.0638511C2.14122 0.119161 2.30649 0.209027 2.44963 0.328306L10.0425 6.67459L17.6496 0.554961C17.7945 0.437291 17.9612 0.349418 18.1401 0.296393C18.3191 0.243368 18.5068 0.226236 18.6924 0.245982C18.878 0.265728 19.0579 0.321962 19.2217 0.411452C19.3855 0.500943 19.53 0.621927 19.6469 0.767447C19.7759 0.914015 19.8732 1.08566 19.9326 1.2716C19.9921 1.45754 20.0125 1.65378 19.9926 1.84798C19.9726 2.04218 19.9128 2.23017 19.8167 2.40013C19.7207 2.5701 19.5905 2.71837 19.4344 2.83566L10.935 9.67775C10.6815 9.8861 10.3635 10 10.0354 10C9.70731 10 9.38937 9.8861 9.1359 9.67775L0.63641 2.59484C0.464979 2.45273 0.329462 2.27221 0.240858 2.06792C0.152252 1.86364 0.113052 1.64135 0.12644 1.41908Z"/>
</svg>
