<svg width="20" height="10" viewBox="0 0 20 10" fill="none" xmlns="http://www.w3.org/2000/svg">
<path d="M19.9966 8.58092C19.9973 8.91191 19.882 9.23268 19.6708 9.48754C19.5519 9.63098 19.4058 9.74955 19.241 9.83646C19.0762 9.92337 18.8959 9.97691 18.7103 9.99402C18.5248 10.0111 18.3377 9.99146 18.1598 9.93615C17.9818 9.88084 17.8166 9.79097 17.6734 9.67169L10.0805 3.32541L2.47349 9.44504C2.32859 9.56271 2.16187 9.65058 1.9829 9.70361C1.80393 9.75663 1.61624 9.77376 1.43063 9.75402C1.24502 9.73427 1.06514 9.67804 0.901329 9.58855C0.73752 9.49906 0.593012 9.37807 0.476112 9.23255C0.347151 9.08598 0.249878 8.91434 0.190397 8.7284C0.130916 8.54246 0.110512 8.34622 0.130465 8.15202C0.150417 7.95782 0.210296 7.76983 0.306343 7.59987C0.402389 7.4299 0.532531 7.28163 0.688599 7.16434L9.18809 0.322254C9.44156 0.113901 9.7595 0 10.0876 0C10.4157 0 10.7337 0.113901 10.9871 0.322254L19.4866 7.40516C19.6581 7.54727 19.7936 7.72779 19.8822 7.93208C19.9708 8.13636 20.01 8.35865 19.9966 8.58092Z"/>
</svg>
