<svg width="20" height="18" viewBox="0 0 20 18" fill="none" xmlns="http://www.w3.org/2000/svg">
<path d="M18.75 8L3.925 8L8.4625 2.55C8.56756 2.4236 8.64669 2.27775 8.69538 2.12077C8.74407 1.96379 8.76137 1.79876 8.74628 1.63509C8.7158 1.30456 8.55527 0.99967 8.3 0.787497C8.04473 0.575323 7.71563 0.473248 7.3851 0.503721C7.05456 0.534197 6.74967 0.694727 6.5375 0.949999L0.287498 8.45C0.245451 8.50965 0.207848 8.57232 0.174999 8.6375C0.174999 8.7 0.112499 8.7375 0.0874996 8.8C0.0308418 8.94332 0.00117683 9.09589 0 9.25C0.00117683 9.40411 0.0308418 9.55667 0.0874996 9.7C0.0874996 9.7625 0.15 9.8 0.174999 9.8625C0.207848 9.92767 0.245451 9.99034 0.287498 10.05L6.5375 17.55C6.65503 17.6911 6.8022 17.8046 6.96856 17.8824C7.13491 17.9601 7.31636 18.0003 7.5 18C7.79207 18.0006 8.07511 17.8988 8.3 17.7125C8.42657 17.6076 8.5312 17.4787 8.60789 17.3333C8.68458 17.1878 8.73183 17.0287 8.74692 16.865C8.76202 16.7012 8.74466 16.5362 8.69586 16.3791C8.64705 16.2221 8.56775 16.0763 8.4625 15.95L3.925 10.5L18.75 10.5C19.0815 10.5 19.3995 10.3683 19.6339 10.1339C19.8683 9.89946 20 9.58152 20 9.25C20 8.91848 19.8683 8.60053 19.6339 8.36611C19.3995 8.13169 19.0815 8 18.75 8Z"/>
</svg>
