<svg width="30" height="30" viewBox="0 0 30 30" fill="none" xmlns="http://www.w3.org/2000/svg">
<path d="M15 0C22.875 0 28.125 2.0625 28.125 4.6875V7.5C29.1621 7.5 30 8.33789 30 9.375V13.125C30 14.1621 29.1621 15 28.125 15V24.375C28.125 25.4121 27.2871 26.25 26.25 26.25V28.125C26.25 29.1621 25.4121 30 24.375 30H22.5C21.4629 30 20.625 29.1621 20.625 28.125V26.25H9.375V28.125C9.375 29.1621 8.53711 30 7.5 30H5.625C4.58789 30 3.75 29.1621 3.75 28.125V26.25C2.71465 26.25 1.875 25.4121 1.875 24.375V15C0.839648 15 0 14.1621 0 13.125V9.375C0 8.33789 0.839648 7.5 1.875 7.5V4.6875C1.875 2.0625 7.125 0 15 0ZM5.625 15C5.625 16.0371 6.46289 16.875 7.5 16.875H14.0625V7.5H7.5C6.46289 7.5 5.625 8.33789 5.625 9.375V15ZM15.9375 16.875H22.5C23.5371 16.875 24.375 16.0371 24.375 15V9.375C24.375 8.33789 23.5371 7.5 22.5 7.5H15.9375V16.875ZM6.5625 23.4375C7.59961 23.4375 8.4375 22.5996 8.4375 21.5625C8.4375 20.5254 7.59961 19.6875 6.5625 19.6875C5.52539 19.6875 4.6875 20.5254 4.6875 21.5625C4.6875 22.5996 5.52539 23.4375 6.5625 23.4375ZM23.4375 23.4375C24.4746 23.4375 25.3125 22.5996 25.3125 21.5625C25.3125 20.5254 24.4746 19.6875 23.4375 19.6875C22.4004 19.6875 21.5625 20.5254 21.5625 21.5625C21.5625 22.5996 22.4004 23.4375 23.4375 23.4375ZM19.6875 3.75H10.3125C9.79688 3.75 9.375 4.16953 9.375 4.6875C9.375 5.20547 9.79688 5.625 10.3125 5.625H19.6875C20.2031 5.625 20.625 5.20547 20.625 4.6875C20.625 4.16953 20.2031 3.75 19.6875 3.75Z"/>
</svg>
