<svg width="25" height="25" viewBox="0 0 25 25" fill="none" xmlns="http://www.w3.org/2000/svg">
<path d="M12.5285 25.0005C9.02519 25.0005 6.06103 23.788 3.63606 21.3631C1.21202 18.939 0 15.9753 0 12.472C0 9.27025 1.04404 6.4917 3.13213 4.13633C5.22022 1.78189 7.88834 0.407467 11.1365 0.0130506C11.7165 -0.0565524 12.1689 0.152257 12.4937 0.639477C12.8185 1.1267 12.8069 1.63712 12.4589 2.17074C12.0645 2.77397 11.7685 3.412 11.5708 4.08482C11.3741 4.75765 11.2757 5.46528 11.2757 6.20772C11.2757 8.2958 12.0065 10.0707 13.4682 11.5323C14.9298 12.994 16.7047 13.7248 18.7928 13.7248C19.512 13.7248 20.2257 13.6204 20.9338 13.4116C21.641 13.2028 22.273 12.9128 22.8298 12.5416C23.317 12.2168 23.8158 12.1991 24.3262 12.4887C24.8367 12.7792 25.0571 13.2376 24.9875 13.864C24.6627 17.0658 23.2998 19.7223 20.899 21.8336C18.4972 23.9449 15.7071 25.0005 12.5285 25.0005Z" fill="#C5F1FE"/>
</svg>
