<svg width="25" height="25" viewBox="0 0 25 25" fill="none" xmlns="http://www.w3.org/2000/svg">
<path d="M25 12.5C25 19.4043 19.4043 25 12.5 25C5.5957 25 0 19.4043 0 12.5C0 5.5957 5.5957 0 12.5 0C19.4043 0 25 5.5957 25 12.5ZM2.81787 9.37988L3.2749 10.2246C3.68017 10.9335 4.34662 11.4557 5.13184 11.6797L7.91504 12.4854C8.79883 12.7246 9.375 13.4912 9.375 14.3652V16.3135C9.375 16.8506 9.67773 17.3389 10.1562 17.5342C10.6348 17.8174 10.9375 18.3057 10.9375 18.8428V20.7471C10.9375 21.5088 11.665 22.0557 12.3975 21.8457C13.1885 21.6211 13.7939 20.9521 13.9941 20.2002L14.1309 19.6533C14.3359 18.8281 14.873 18.1201 15.6104 17.6953L16.0059 17.4707C16.7383 17.0557 17.1875 16.2793 17.1875 15.4346V15.0342C17.1875 14.4092 16.9385 13.8135 16.499 13.374L16.3135 13.1885C15.874 12.749 15.2734 12.4561 14.6533 12.4561H12.5049C12.0068 12.4561 11.4697 12.3584 10.9961 12.0898L9.31152 11.123C9.10156 11.0059 8.94043 10.8105 8.86719 10.5811C8.71094 10.1123 8.9209 9.60449 9.36035 9.37988L9.65332 9.23828C9.97559 9.07715 10.3467 9.04785 10.6494 9.16504L11.8262 9.54102C12.2217 9.67285 12.6611 9.52148 12.8955 9.1748C13.125 8.82812 13.1006 8.37402 12.8369 8.05664L12.1729 7.26563C11.6846 6.67969 11.6895 5.8252 12.1875 5.24902L12.9541 4.35156C13.3838 3.8501 13.4521 3.13281 13.125 2.55957L13.0078 2.35645C12.7979 2.34814 12.6709 2.34375 12.5 2.34375C7.96387 2.34375 4.12109 5.31738 2.81787 9.37988V9.37988ZM21.3672 7.54395L20.1172 8.04688C19.3506 8.35449 18.9551 9.2041 19.2139 9.99023L20.0391 12.4658C20.21 12.9736 20.625 13.3594 21.1426 13.4912L22.5684 13.8428C22.627 13.4033 22.6562 12.9541 22.6562 12.5C22.6562 10.7031 22.1875 9.01367 21.3672 7.54395V7.54395Z"/>
</svg>
