<svg width="25" height="23" viewBox="0 0 25 23" fill="none" xmlns="http://www.w3.org/2000/svg">
<path d="M24.3952 4.58967C24.0073 3.69152 23.448 2.87763 22.7486 2.19356C22.0486 1.50744 21.2234 0.962199 20.3177 0.587472C19.3786 0.197361 18.3713 -0.00232025 17.3544 2.03405e-05C15.9277 2.03405e-05 14.5358 0.39069 13.3262 1.12862C13.0368 1.30515 12.7619 1.49903 12.5014 1.71029C12.241 1.49903 11.9661 1.30515 11.6767 1.12862C10.4671 0.39069 9.07511 2.03405e-05 7.64844 2.03405e-05C6.62113 2.03405e-05 5.62564 0.196802 4.68514 0.587472C3.77647 0.963672 2.95751 1.50482 2.25431 2.19356C1.55399 2.87686 0.994552 3.69094 0.607708 4.58967C0.205463 5.52438 0 6.51697 0 7.5385C0 8.50215 0.196782 9.50632 0.587452 10.5278C0.914457 11.3815 1.38326 12.267 1.98229 13.1612C2.93147 14.5763 4.2366 16.0522 5.85715 17.5483C8.54264 20.0284 11.2021 21.7415 11.315 21.811L12.0008 22.2508C12.3047 22.4447 12.6953 22.4447 12.9992 22.2508L13.685 21.811C13.7979 21.7386 16.4544 20.0284 19.1428 17.5483C20.7634 16.0522 22.0685 14.5763 23.0177 13.1612C23.6167 12.267 24.0884 11.3815 24.4125 10.5278C24.8032 9.50632 25 8.50215 25 7.5385C25.0029 6.51697 24.7974 5.52438 24.3952 4.58967Z" fill="#FF9999"/>
</svg>
