<svg width="15" height="20" viewBox="0 0 15 20" fill="none" xmlns="http://www.w3.org/2000/svg">
<path d="M0.428977 10.8227L13.429 19.8227C13.579 19.9265 13.7546 19.9873 13.9367 19.9984C14.1188 20.0096 14.3004 19.9708 14.462 19.8861C14.6237 19.8015 14.759 19.6742 14.8535 19.5181C14.9479 19.362 14.9979 19.1831 14.998 19.0007V1.00066C14.9981 0.81814 14.9483 0.639064 14.8539 0.482844C14.7595 0.326624 14.6241 0.199219 14.4625 0.114434C14.3009 0.0296497 14.1191 -0.0092792 13.9369 0.00186647C13.7547 0.0130121 13.5791 0.0738072 13.429 0.177663L0.428977 9.17766C0.296536 9.27009 0.188374 9.39314 0.113688 9.53634C0.0390014 9.67954 0 9.83866 0 10.0002C0 10.1617 0.0390014 10.3208 0.113688 10.464C0.188374 10.6072 0.296536 10.7302 0.428977 10.8227Z"/>
</svg>
