<svg width="30" height="27" viewBox="0 0 30 27" fill="none" xmlns="http://www.w3.org/2000/svg">
<path d="M29.2742 5.56986C28.8087 4.49208 28.1375 3.51541 27.2983 2.69453C26.4583 1.87119 25.4681 1.21689 24.3813 0.767222C23.2543 0.299089 22.0456 0.0594716 20.8253 0.0622803C19.1133 0.0622803 17.443 0.531084 15.9914 1.4166C15.6442 1.62843 15.3143 1.8611 15.0017 2.1146C14.6892 1.8611 14.3593 1.62843 14.012 1.4166C12.5605 0.531084 10.8901 0.0622803 9.17813 0.0622803C7.94535 0.0622803 6.75077 0.298419 5.62217 0.767222C4.53177 1.21866 3.54902 1.86804 2.70517 2.69453C1.86479 3.51449 1.19346 4.49139 0.72925 5.56986C0.246556 6.69151 0 7.88262 0 9.10845C0 10.2648 0.236138 11.4698 0.704942 12.6957C1.09735 13.7201 1.65991 14.7827 2.37874 15.8558C3.51776 17.5539 5.08392 19.3249 7.02858 21.1202C10.2512 24.0963 13.4425 26.1521 13.5779 26.2354L14.401 26.7633C14.7656 26.9959 15.2344 26.9959 15.599 26.7633L16.422 26.2354C16.5575 26.1486 19.7453 24.0963 22.9714 21.1202C24.916 19.3249 26.4822 17.5539 27.6212 15.8558C28.3401 14.7827 28.9061 13.7201 29.295 12.6957C29.7638 11.4698 30 10.2648 30 9.10845C30.0034 7.88262 29.7569 6.69151 29.2742 5.56986ZM15.0017 24.0164C15.0017 24.0164 2.63919 16.0954 2.63919 9.10845C2.63919 5.56986 5.56661 2.70147 9.17813 2.70147C11.7166 2.70147 13.9183 4.1183 15.0017 6.18798C16.0852 4.1183 18.2868 2.70147 20.8253 2.70147C24.4368 2.70147 27.3642 5.56986 27.3642 9.10845C27.3642 16.0954 15.0017 24.0164 15.0017 24.0164Z" fill="#FF9999"/>
</svg>
