<svg width="30" height="25" viewBox="0 0 30 25" fill="none" xmlns="http://www.w3.org/2000/svg">
<path d="M8.71608 1.54133e-08H28.6237C28.9887 1.54133e-08 29.3388 0.144999 29.5969 0.403098C29.855 0.661198 30 1.01126 30 1.37626V23.3965C30 23.7615 29.855 24.1116 29.5969 24.3696C29.3388 24.6278 28.9887 24.7727 28.6237 24.7727H8.71608C8.48956 24.7728 8.26653 24.7169 8.06679 24.6101C7.86704 24.5032 7.69675 24.3487 7.57103 24.1603L0.231418 13.1502C0.0805261 12.924 0 12.6583 0 12.3864C0 12.1145 0.0805261 11.8487 0.231418 11.6225L7.57103 0.612437C7.69675 0.424004 7.86704 0.269517 8.06679 0.162681C8.26653 0.0558459 8.48956 -3.38826e-05 8.71608 1.54133e-08ZM17.6136 10.4403L13.7216 6.54689L11.7741 8.4943L15.6676 12.3864L11.7741 16.2784L13.7216 18.2259L17.6136 14.3324L21.5057 18.2259L23.4531 16.2784L19.5597 12.3864L23.4531 8.4943L21.5057 6.54689L17.6136 10.4403Z"/>
</svg>
