<svg width="25" height="26" viewBox="0 0 25 26" fill="none" xmlns="http://www.w3.org/2000/svg">
<path d="M12.5285 25.041C9.02519 25.041 6.06103 23.8286 3.63606 21.4036C1.21202 18.9796 0 16.0159 0 12.5125C0 9.31077 1.04404 6.53222 3.13213 4.17686C5.22022 1.82242 7.88834 0.447995 11.1365 0.0535779C11.7165 -0.0160251 12.1689 0.192784 12.4937 0.680005C12.8185 1.16723 12.8069 1.67765 12.4589 2.21127C12.0645 2.8145 11.7685 3.45252 11.5708 4.12535C11.3741 4.79818 11.2757 5.50581 11.2757 6.24824C11.2757 8.33633 12.0065 10.1112 13.4682 11.5729C14.9298 13.0345 16.7047 13.7654 18.7928 13.7654C19.512 13.7654 20.2257 13.661 20.9338 13.4522C21.641 13.2433 22.273 12.9533 22.8298 12.5821C23.317 12.2573 23.8158 12.2397 24.3262 12.5292C24.8367 12.8197 25.0571 13.2781 24.9875 13.9046C24.6627 17.1063 23.2998 19.7628 20.899 21.8741C18.4972 23.9854 15.7071 25.041 12.5285 25.041ZM12.5285 22.2569C14.5702 22.2569 16.4031 21.6945 18.0272 20.5698C19.6512 19.444 20.8345 17.9763 21.5769 16.1667C21.1129 16.2827 20.6489 16.3755 20.1849 16.4451C19.7208 16.5147 19.2568 16.5495 18.7928 16.5495C15.9391 16.5495 13.5085 15.5463 11.5012 13.5399C9.49477 11.5325 8.49156 9.10196 8.49156 6.24824C8.49156 5.78422 8.52637 5.3202 8.59597 4.85618C8.66557 4.39216 8.75837 3.92814 8.87438 3.46412C7.0647 4.20656 5.59747 5.38981 4.47269 7.01388C3.34697 8.63795 2.78412 10.4708 2.78412 12.5125C2.78412 15.2038 3.73536 17.5007 5.63784 19.4032C7.54032 21.3057 9.83722 22.2569 12.5285 22.2569Z" fill="#455960"/>
</svg>
