<svg width="25" height="26" viewBox="0 0 25 26" fill="none" xmlns="http://www.w3.org/2000/svg">
<path d="M16.1901 2.782C17.7274 4.32115 18.6896 6.34149 18.9157 8.50508C19.1418 10.6687 18.6181 12.8443 17.4322 14.668C17.6392 14.8405 17.8117 15.0303 18.0532 15.2028C18.3983 15.4788 18.864 15.8238 19.4506 16.2206C20.0371 16.6346 20.4166 16.8934 20.5892 17.0314C21.3137 17.5662 21.8485 18.0147 22.2108 18.377C22.7628 18.929 23.2458 19.4983 23.6598 20.1021C24.0911 20.7059 24.4189 21.2924 24.6777 21.8962C24.9192 22.5 25.0399 23.0693 24.9882 23.6213C24.9537 24.1733 24.7467 24.6391 24.3671 25.0186C23.9876 25.3982 23.5218 25.6052 22.9698 25.6397C22.435 25.6742 21.8485 25.5707 21.2619 25.3119C20.6582 25.0704 20.0544 24.7254 19.4678 24.2941C18.864 23.8801 18.2948 23.397 17.7427 22.845C17.3805 22.4827 16.9319 21.9479 16.4144 21.2406C16.2419 21.0164 15.9831 20.6369 15.6036 20.1021C15.2241 19.55 14.9135 19.1188 14.6375 18.7565C14.3615 18.4115 14.1373 18.1527 13.8785 17.8939C12.0879 18.8315 10.0448 19.1731 8.04662 18.8691C6.04842 18.565 4.19943 17.6311 2.7688 16.2033C-0.922932 12.4944 -0.922932 6.47373 2.7688 2.782C3.64967 1.90007 4.69576 1.20042 5.84723 0.723062C6.99869 0.245704 8.23297 0 9.47946 0C10.726 0 11.9602 0.245704 13.1117 0.723062C14.2632 1.20042 15.3093 1.90007 16.1901 2.782ZM13.7577 13.7537C14.8847 12.6185 15.5172 11.0837 15.5172 9.48404C15.5172 7.8844 14.8847 6.34964 13.7577 5.2144C13.1976 4.65264 12.5322 4.20693 11.7995 3.90281C11.0668 3.5987 10.2814 3.44215 9.48809 3.44215C8.69481 3.44215 7.90933 3.5987 7.17667 3.90281C6.444 4.20693 5.77855 4.65264 5.21845 5.2144C4.65669 5.7745 4.21097 6.43995 3.90686 7.17262C3.60274 7.90529 3.4462 8.69077 3.4462 9.48404C3.4462 10.2773 3.60274 11.0628 3.90686 11.7955C4.21097 12.5281 4.65669 13.1936 5.21845 13.7537C5.77855 14.3154 6.444 14.7612 7.17667 15.0653C7.90933 15.3694 8.69481 15.5259 9.48809 15.5259C10.2814 15.5259 11.0668 15.3694 11.7995 15.0653C12.5322 14.7612 13.1976 14.3154 13.7577 13.7537Z" />
</svg>
