<svg width="30" height="27" viewBox="0 0 30 27" fill="none" xmlns="http://www.w3.org/2000/svg">
<path d="M29.2742 5.5076C28.8087 4.42983 28.1375 3.45316 27.2983 2.63227C26.4583 1.80893 25.4681 1.15464 24.3813 0.704966C23.2543 0.236833 22.0456 -0.0027843 20.8253 2.44086e-05C19.1133 2.44086e-05 17.443 0.468828 15.9914 1.35435C15.6442 1.56618 15.3143 1.79884 15.0017 2.05234C14.6892 1.79884 14.3593 1.56618 14.012 1.35435C12.5605 0.468828 10.8901 2.44086e-05 9.17813 2.44086e-05C7.94535 2.44086e-05 6.75077 0.236163 5.62217 0.704966C4.53177 1.15641 3.54902 1.80579 2.70517 2.63227C1.86479 3.45223 1.19346 4.42913 0.72925 5.5076C0.246556 6.62926 0 7.82036 0 9.0462C0 10.2026 0.236138 11.4076 0.704942 12.6334C1.09735 13.6578 1.65991 14.7205 2.37874 15.7935C3.51776 17.4916 5.08392 19.2626 7.02858 21.058C10.2512 24.034 13.4425 26.0898 13.5779 26.1732L14.401 26.701C14.7656 26.9337 15.2344 26.9337 15.599 26.701L16.422 26.1732C16.5575 26.0863 19.7453 24.034 22.9714 21.058C24.916 19.2626 26.4822 17.4916 27.6212 15.7935C28.3401 14.7205 28.9061 13.6578 29.295 12.6334C29.7638 11.4076 30 10.2026 30 9.0462C30.0034 7.82036 29.7569 6.62926 29.2742 5.5076Z"/>
</svg>
