<svg width="30" height="30" viewBox="0 0 30 30" fill="none" xmlns="http://www.w3.org/2000/svg">
<path d="M11.0178 22.0357C12.3053 22.0357 13.5398 21.8121 14.6873 21.4027C16.6611 20.6986 19.1581 21.1734 20.0611 23.0645C20.2627 23.4867 20.5564 23.8578 20.9011 24.1741C21.0453 24.3064 21.2126 24.4641 21.3951 24.6438C22.0042 25.2151 22.8054 25.9879 23.5735 26.7954L25.7109 28.9864C26.2307 29.5423 27.1077 29.557 27.6459 29.0189L29.0157 27.649C29.5539 27.1109 29.5392 26.2339 28.9832 25.7141L26.7922 23.5766C26.0551 22.8705 25.3376 22.1441 24.6406 21.3982C24.4603 21.215 24.3021 21.0471 24.1694 20.9026C23.8542 20.559 23.4843 20.2662 23.0635 20.0653C21.1742 19.1631 20.6997 16.662 21.4014 14.6895C21.8174 13.5201 22.0352 12.2792 22.0357 11.0178C22.0357 4.94386 17.0918 0 11.0178 0C4.94386 0 0 4.94386 0 11.0178C0 17.0918 4.94386 22.0357 11.0178 22.0357Z"/>
</svg>
