<svg width="30" height="33" viewBox="0 0 30 33" fill="none" xmlns="http://www.w3.org/2000/svg">
<path d="M16.7175 0.683356C16.2533 0.244516 15.6388 0 15 0C14.3612 0 13.7467 0.244516 13.2825 0.683356L1.1725 12.1284C0.801705 12.4792 0.506455 12.9021 0.304841 13.3711C0.103228 13.8401 -0.00050393 14.3454 1.84063e-06 14.8559V28.7809C0.000664593 29.775 0.396045 30.7282 1.09923 31.4309C1.80242 32.1336 2.75587 32.5284 3.75 32.5284H7.5C8.49456 32.5284 9.44839 32.1333 10.1517 31.43C10.8549 30.7267 11.25 29.7729 11.25 28.7784V22.5284C11.25 22.1968 11.3817 21.8789 11.6161 21.6445C11.8505 21.4101 12.1685 21.2784 12.5 21.2784H17.5C17.8315 21.2784 18.1495 21.4101 18.3839 21.6445C18.6183 21.8789 18.75 22.1968 18.75 22.5284V28.7784C18.75 29.7729 19.1451 30.7267 19.8484 31.43C20.5516 32.1333 21.5054 32.5284 22.5 32.5284H26.25C27.2446 32.5284 28.1984 32.1333 28.9017 31.43C29.6049 30.7267 30 29.7729 30 28.7784V14.8534C29.9998 14.3431 29.8956 13.8382 29.6935 13.3697C29.4915 12.9011 29.1959 12.4787 28.825 12.1284L16.7175 0.678356V0.683356Z"/>
</svg>
